#format: frame checksums
#version: 2
#hash: MD5
#extradata 0,                              30, 0e11a510b0c7831954402f81dd258188
#tb 0: 1/51200
#media_type 0: video
#codec_id 0: mpeg4
#dimensions 0: 352x288
#sar 0: 1/1
#tb 1: 1/44100
#media_type 1: audio
#codec_id 1: ac3
#sample_rate 1: 44100
#channel_layout_name 1: mono
#stream#, dts,        pts, duration,     size, hash
1,       -256,       -256,     1536,      416, 2a5e3f43413b15340832d7cab285531f
0,          0,          0,     2048,     8719, bbea2a7487d61d39a0b2f2fe62a4df4a
1,       1280,       1280,     1536,      418, a4c286296881f427197dc17bfd5c4eb8
0,       2048,       2048,     2048,      975, 94f30e410595452ee981d96224516504
1,       2816,       2816,     1536,      418, d79f0538866dbbc3153739658700c56f
0,       4096,       4096,     2048,     1167, d3b895191e8a06d19bbc8ac90e564b3b
1,       4352,       4352,     1536,      418, 596459a873beb710585605073a97ba29
0,       6144,       6144,     2048,     1274, 272f548f13dd6a45a5cd187f0e43e635
1,       5888,       5888,     1536,      418, 67a5afed85e8a7e3dfcc5a97e0dad8e5
0,       8192,       8192,     2048,     1361, a0c67fc195fe867ae240dc8c48f85b2e
1,       7424,       7424,     1536,      418, 95de1b0a78260080f0c903f2ad309e92
0,      10240,      10240,     2048,     1415, f7a3746adb348eb00042b3eccff54a87
1,       8960,       8960,     1536,      418, 873e926ac1fad5cd4d16fb64d6be1a50
1,      10496,      10496,     1536,      418, b22c09c3f6252ead70b66261ee12812a
0,      12288,      12288,     2048,     1421, 8396b1c23f7d39f6f73c3469826317d6
1,      12032,      12032,     1536,      418, 44f68ed708b2cd9f90f9d98c3054a0f0
0,      14336,      14336,     2048,     1474, a9c493c020d710af7f2c98b9aae846ff
1,      13568,      13568,     1536,      418, d0632d8de100940364fc0d8a67a91e38
0,      16384,      16384,     2048,     1467, b801d1a76c84923ab813e9a5d9ebdb78
1,      15104,      15104,     1536,      418, d4e3fcb3f8410deb52b367d2cac951cf
0,      18432,      18432,     2048,     1469, 22f7fcd055bf124436de9a9432f7c9d2
1,      16640,      16640,     1536,      418, 02354447699dd76d3f597e32313e3cb3
0,      20480,      20480,     2048,     1506, da18f30d7008f2307ec51863a9873afd
1,      18176,      18176,     1536,      418, 7b940e7cb015cb03ee3c00339bfe4565
0,      22528,      22528,     2048,     1520, 2c7d44ca3485373af6cfb3e44e495bf7
1,      19712,      19712,     1536,      418, 635672643d98f32ba3a815d147652f5c
0,      24576,      24576,     2048,     8524, 0634c69955cbffe94f4e15b288557cac
1,      21248,      21248,     1536,      418, 882925216c84b6c87d80a81d432b258b
1,      22784,      22784,     1536,      418, fd30bb1f6fc418356102f41456fc0ee0
0,      26624,      26624,     2048,     1079, f081cbd559dab2b579f40d2fa988a959
1,      24320,      24320,     1536,      418, f2fe9d98441ee9873f85e953f9934608
0,      28672,      28672,     2048,     1343, fdf8069cd511f4fa185748118acfb72e
1,      25856,      25856,     1536,      418, 8ade12ef95d980a990890e5d90257b9a
0,      30720,      30720,     2048,     1486, e72dfcd069f5be3a30310002b1b5e252
1,      27392,      27392,     1536,      418, 6902d1b3288142d457b349d4ba94317a
0,      32768,      32768,     2048,     1491, 710c5421d44a8c9356c1477cbcd27c0e
1,      28928,      28928,     1536,      418, 13bd95b4ee0033983ce947275d090569
0,      34816,      34816,     2048,     1504, 16a6d624b8175f1191ede25e2d588b92
1,      30464,      30464,     1536,      418, 612577b79fc6f9911a1a17f4e2f7ad5e
0,      36864,      36864,     2048,     1481, 8696aa412629328687bda5e88dd40b81
1,      32000,      32000,     1536,      418, 77d5b79030a6f48123d9e4186c4926d8
0,      38912,      38912,     2048,     1521, 3c974bf799b8e35d295c6567ffeb7276
1,      33536,      33536,     1536,      418, 7677d2fbd7e396a2ea783fef5c93fd5a
1,      35072,      35072,     1536,      418, 232dc7acd8df2bc55801b884329e1dc4
0,      40960,      40960,     2048,     1514, 1a54ec5296f1551a7f67c515e40ca646
1,      36608,      36608,     1536,      418, c112beb3670aced14d3b96100e8324f9
0,      43008,      43008,     2048,     1562, d285916a1c7a2fb9f37d18bfa977e075
1,      38144,      38144,     1536,      418, dc6e8435087f1f2af739116f085afee5
0,      45056,      45056,     2048,     1562, 320c26adae1dad1741e02febdbd5b916
1,      39680,      39680,     1536,      418, bbf86e17ac04fd09165f29919057f5c5
0,      47104,      47104,     2048,     1629, 60c6ebd71f641ebcff9997ee338d82bf
1,      41216,      41216,     1536,      418, ae01512f635f23adaba017065af99344
0,      49152,      49152,     2048,     9634, b72deda826b002179c46789e92c07978
1,      42752,      42752,     1536,      418, cc4336b7f17ef56131681ded3128158f
0,      51200,      51200,     2048,     1239, 407105508656c920761e60c90540ee18
1,      44288,      44288,     1536,      418, e27502eb68e57cef153963ca4456c61b
1,      45824,      45824,     1536,      418, b919a355a9febc532bb1cb60ae410584
0,      53248,      53248,     2048,     1568, 1e5b232eaf9f35846ae25b881f658e5c
1,      47360,      47360,     1536,      418, c7370a069bc6324e369d9364e881d9f7
0,      55296,      55296,     2048,     1641, f79725e348ed7796f2be7c153ce32580
1,      48896,      48896,     1536,      418, bf5db56530b4337c3f88c727f0a32fb8
0,      57344,      57344,     2048,     1735, ae14fbdbf8777d88077818db0ae346b3
1,      50432,      50432,     1536,      418, d080287942e7f70ff4918e09427fbdc4
0,      59392,      59392,     2048,     1760, e943dc0f9ed56fbca1af43c3c3c6dea1
1,      51968,      51968,     1536,      418, 22b1b61f6f2e8a873e6266307d71a581
0,      61440,      61440,     2048,     1798, efb1c91f9aee5c84c92e8cd5a5b58783
1,      53504,      53504,     1536,      418, fc4b724bd4c1aef733ce6551e9d9687b
0,      63488,      63488,     2048,     1830, 7aa74080b344e63280854570f701e2b8
1,      55040,      55040,     1536,      418, dff69e11098e2ec48849a488d8037c94
0,      65536,      65536,     2048,     1835, 566fa13f73b9aa63eed50511b112b191
1,      56576,      56576,     1536,      418, 5b4806053df359da7c494766adb64165
1,      58112,      58112,     1536,      418, a0f7e9bc937e96449cda93f7a65419ab
0,      67584,      67584,     2048,     1902, 95933f1710291419d0febd37d5878362
1,      59648,      59648,     1536,      418, 69c8762376bf55ce5f5fb61419872b0b
0,      69632,      69632,     2048,     1886, 5a8e4c7557ec0d09d40fbfabc5b92e63
1,      61184,      61184,     1536,      418, 16bda1f427386230207d77c694bcca51
0,      71680,      71680,     2048,     1949, 3f81e2b8821c22f89501feafebb9d618
1,      62720,      62720,     1536,      418, 5243be3119977ac5119efb9dd65cc2d4
0,      73728,      73728,     2048,    10776, 29e4a6fdc625965feae7faa8ab239db1
1,      64256,      64256,     1536,      418, b23e40125a670dd7d969c5f0b7cdee4f
0,      75776,      75776,     2048,     1413, 4b5bde19c84eca2c776f6ac45163a0a5
1,      65792,      65792,     1536,      418, 8253e2563a15405dfd1681be070a4667
0,      77824,      77824,     2048,     1731, 7f46b3e146e52fd500dbf53a3c744662
1,      67328,      67328,     1536,      418, 991e921c18f4891e0fe635a768963802
0,      79872,      79872,     2048,     1888, 2bd4182a0fe98db2990c8e39c0500872
1,      68864,      68864,     1536,      418, b111cf809d4a36185a39cd7389b9ce45
1,      70400,      70400,     1536,      418, c0d1a93a1c37173abfce4da8b5337939
0,      81920,      81920,     2048,     1989, f3bf07391ef46cba98eb78fdc3707fa3
1,      71936,      71936,     1536,      418, 9feec673afad5b1fe0b8ae33c3bbbed9
0,      83968,      83968,     2048,     1949, 0650751332acc5d5f96f292ffc4add21
1,      73472,      73472,     1536,      418, 3d49b481cce084e6f68be6bbbb490065
0,      86016,      86016,     2048,     1956, d52d57b697f4ec90bb1f69fd7ece1952
1,      75008,      75008,     1536,      416, 984b1c95473986568f6d91e519102ab6
0,      88064,      88064,     2048,     2012, e25c0bb0ec726fe5c9ade88cf7ae9a19
1,      76544,      76544,     1536,      418, 1c1dd88c2adab221c54c7f6b078969f5
0,      90112,      90112,     2048,     1995, eb0377542bc15580ef8f772ce6f506bd
1,      78080,      78080,     1536,      418, c004d9f518b16e94b91ddf2651e66fa9
0,      92160,      92160,     2048,     2078, 7aa93cd366118984932da377f4743de6
1,      79616,      79616,     1536,      418, e2ec18334a3840c47b62db1cfc5c1f89
0,      94208,      94208,     2048,     2116, 9d8c672e97c27ed4e3281bb10481914a
1,      81152,      81152,     1536,      418, a7e4ea82b7acb60fb0b6391d3d0cf63e
1,      82688,      82688,     1536,      418, 45009d73717d3935b32fe8d165d30d72
0,      96256,      96256,     2048,     2024, 18d42dbec2fa24fd30374d79a054cd4f
1,      84224,      84224,     1536,      418, 2f89c35f0fe754a2f299902fa00d16dd
0,      98304,      98304,     2048,    11182, e35a2ab846029effdbca0e43639717f2
1,      85760,      85760,     1536,      418, c047ae283b64849e51ec4d0a56cdd832
0,     100352,     100352,     2048,     1423, f480272c7d0b97834bc8ea36cceca61d
